<svg xmlns="http://www.w3.org/2000/svg" width="15" height="14" viewBox="0 0 15 14" fill="none">
  <path d="M10.3715 3.89013L14.261 4.43869C14.5831 4.48268 14.8538 4.70003 14.9566 4.9976C15.0595 5.29776 14.9756 5.6238 14.7428 5.84633L11.9224 8.49082L12.5883 12.2842C12.6424 12.5947 12.5098 12.9104 12.2391 13.0941C11.9712 13.2778 11.6166 13.3011 11.327 13.1536L7.85158 11.3811L4.37891 13.1536C4.08659 13.3011 3.73202 13.2778 3.46405 13.0941C3.19609 12.9104 3.06076 12.5947 3.1176 12.2842L3.78344 8.49082L0.962541 5.84633C0.729495 5.6238 0.646671 5.29776 0.748983 4.9976C0.851025 4.70003 1.12088 4.48268 1.44541 4.43869L5.33166 3.89013L7.07477 0.465998C7.21822 0.180951 7.52137 0 7.85158 0C8.18451 0 8.48765 0.180951 8.63111 0.465998L10.3715 3.89013Z" fill="#F2F2F2"/>
</svg>