<svg xmlns="http://www.w3.org/2000/svg" width="15" height="14" viewBox="0 0 15 14" fill="none">
  <path d="M9.69499 3.89013L13.5845 4.43869C13.9066 4.48268 14.1773 4.70003 14.2801 4.9976C14.383 5.29776 14.2991 5.6238 14.0663 5.84633L11.2459 8.49082L11.9118 12.2842C11.9659 12.5947 11.8333 12.9104 11.5626 13.0941C11.2946 13.2778 10.9401 13.3011 10.6504 13.1536L7.17507 11.3811L3.7024 13.1536C3.41008 13.3011 3.0555 13.2778 2.78754 13.0941C2.51958 12.9104 2.38425 12.5947 2.44109 12.2842L3.10693 8.49082L0.286027 5.84633C0.0529817 5.6238 -0.0298428 5.29776 0.0724697 4.9976C0.174512 4.70003 0.444368 4.48268 0.768898 4.43869L4.65515 3.89013L6.39825 0.465998C6.54171 0.180951 6.84486 0 7.17507 0C7.50799 0 7.81114 0.180951 7.95459 0.465998L9.69499 3.89013Z" fill="#0065FC"/>
</svg>